<svg
 width="150"
 height="200"
 xmlns="http://www.w3.org/2000/svg"
 >
<g transform="scale(1 1)">
<title>I love you</title>
    
    <path id="backout"
     style="fill: #a20"
     d="M 22.468 49.078 C 22.7 48.689 28.136 29.353 29.186 7.343 C 54.81 17.527 74.148 17.695 89.222 17.604 C 88.296 25.503 85.013 45.801 88.505 72.929 C 88.648 73.276 81.749 74.232 78.762 74.502 C 78.782 74.44 74.481 83.449 75.607 99.878 C 75.602 99.93 81.524 103.986 84.932 105.452 C 85.031 105.349 91.158 103.802 97.346 103.082 C 97.492 103.164 97.725 117.475 100.471 130.828 C 100.368 130.848 101.302 130.781 101.735 130.758 C 101.781 130.896 102.181 131.705 102.351 132.077 C 102.841 131.931 107.534 128.889 114.079 126.425 C 114.158 126.943 113.037 133.974 113.658 141.044 C 113.802 140.982 120.463 141.851 131.902 136.46 C 131.699 136.685 122.074 146.028 113.432 157.679 C 113.34 157.616 104.583 156.778 94.976 157.057 C 94.644 157.23 82.098 170.992 74.542 176.928 C 74.426 176.332 69.815 170.051 65.902 167.646 C 65.268 167.775 58.946 170.551 55.011 173.35 C 55.023 173.121 48.951 162.683 49.785 134.001 C 49.785 134.001 54.988 135.906 58.394 136.46 C 57.289 128.201 49.897 92.728 27.034 70.366 C 27.131 69.975 27.95 65.462 30.11 59.296 C 29.818 58.39 25.338 52.461 22.468 49.078 Z"
    />
    
    <g id="blackline"
     style="fill: rgba(50, 10, 0, 0.95)"
    >
        <path id="outline"
         d="
          M 22.468 49.078 C 22.7 48.689 28.136 29.353 29.186 7.343 C 54.81 17.527 74.148 17.695 89.222 17.604 C 88.296 25.503 85.013 45.801 88.505 72.929 C 88.648 73.276 81.749 74.232 78.762 74.502 C 78.782 74.44 74.481 83.449 75.607 99.878 C 75.602 99.93 81.524 103.986 84.932 105.452 C 85.031 105.349 91.158 103.802 97.346 103.082 C 97.492 103.164 97.725 117.475 100.471 130.828 C 100.368 130.848 101.302 130.781 101.735 130.758 C 101.781 130.896 102.181 131.705 102.351 132.077 C 102.841 131.931 107.534 128.889 114.079 126.425 C 114.158 126.943 113.037 133.974 113.658 141.044 C 113.802 140.982 120.463 141.851 131.902 136.46 C 131.699 136.685 122.074 146.028 113.432 157.679 C 113.34 157.616 104.583 156.778 94.976 157.057 C 94.644 157.23 82.098 170.992 74.542 176.928 C 74.426 176.332 69.815 170.051 65.902 167.646 C 65.268 167.775 58.946 170.551 55.011 173.35 C 55.023 173.121 48.951 162.683 49.785 134.001 C 49.785 134.001 54.988 135.906 58.394 136.46 C 57.289 128.201 49.897 92.728 27.034 70.366 C 27.131 69.975 27.95 65.462 30.11 59.296 C 29.818 58.39 25.338 52.461 22.468 49.078 Z
          M 101.735 130.758 C 101.726 130.732 101.73 130.729 101.749 130.757 C 101.744 130.757 101.74 130.757 101.735 130.758 Z
          M 113.432 157.679 C 113.433 157.68 113.433 157.68 113.43 157.681 C 113.431 157.68 113.431 157.679 113.432 157.679 Z
          M 96.006 104.774 C 89.537 105.731 69.463 110.566 62.455 114.687 C 56.038 99.68 49.075 88.154 43.139 69.244 C 39.411 62.347 39.174 68.709 39.194 70.5 C 37.886 66.701 38.763 62.79 39.303 60.765 C 39.667 61.822 40.058 63.439 40.642 64.826 C 40.78 65.309 47.658 71.868 64.141 72.837 C 69.222 73.269 76.018 73.049 85.449 71.547 C 85.379 71.517 82.376 47.01 85.449 21.483 C 79.841 21.321 59.486 22.478 32.287 12.258 C 32.505 12.513 37.289 26.476 41.227 44.447 C 41.194 44.472 41.163 44.504 41.134 44.542 C 41.133 44.529 41.131 44.518 41.13 44.507 C 37.785 34.378 34.866 23.823 31.094 14.122 C 29.051 36.174 25.528 48.709 25.192 48.84 C 27.92 52.112 31.052 56.987 31.155 57.372 C 31.922 55.705 33.852 52.145 33.943 52.342 C 29.959 64.271 29.761 69.806 29.786 69.843 C 47.373 90.433 54.909 106.539 57.353 110.648 C 57.391 111.004 52.153 102.005 49.934 99.796 C 54.671 112.037 60.092 131.522 59.978 131.43 C 64.335 135.586 71.1 136.206 71.987 136.186 C 71.526 130.997 70.391 125.13 70.104 123.273 L 73.089 135.11 C 73.091 134.902 79.733 119.538 85.833 110.219 C 85.919 110.182 91.385 114.452 97.202 121.049 C 97.229 120.477 95.994 113.734 96.006 104.774 Z
          M 31.145 57.394 C 31.157 57.4 31.161 57.393 31.155 57.372 C 31.152 57.379 31.148 57.387 31.145 57.394 Z
          M 119.716 142.126 C 116.091 143.338 111.013 143.327 111.213 143.173 C 110.775 143.45 109.629 143.148 101.424 147.532 C 108.562 142.725 110.934 141.742 111.055 141.826 C 111.122 141.713 110.582 137.055 111.263 131.476 C 111.231 131.691 106.602 140.246 98.99 150.348 C 111.145 146.138 119.817 142.176 119.716 142.126 Z
          M 62.44 149.127 C 62.4 149.085 64.052 157.644 72.021 167.121 C 62.836 158.181 61.125 150.207 61.08 150.13 C 60.999 149.682 60.801 149.03 60.741 149.011 L 58.735 147.195 C 58.76 147.418 59.082 153.362 60.37 159.231 C 60.221 159.404 65.867 162.401 73.52 171.118 C 73.445 170.697 74.631 158.384 72.699 142.584 C 71.81 142.411 65.11 141.418 60.924 138.867 L 62.44 149.127 Z
          M 59.929 145.221 C 59.324 142.786 59.153 141.638 58.867 139.201 C 58.867 139.201 56.519 138.779 54.309 137.827 C 56.786 142.098 59.599 144.953 59.929 145.221 Z
          M 51.45 138.223 C 51.227 138.198 51.078 152.661 55.011 168.238 C 55.159 168.312 55.085 162.369 55.679 160.437 C 55.902 160.412 54.716 158.01 53.602 150.556 C 56.199 158.505 58.428 159.397 58.5 159.471 C 58.475 159.347 57.336 154.246 57.311 145.727 C 57.215 145.677 54.072 143.176 51.45 138.223 Z
          M 56.415 170.145 C 56.536 169.897 61.633 167.569 64.575 166.727 C 64.825 166.727 62.178 164.721 60.422 163.607 L 59.087 164.87 L 57.083 161.898 C 56.935 161.898 55.897 164.424 56.415 170.145 Z
          M 76.534 172.371 C 96.269 156.47 109.411 130.251 109.867 129.806 L 101.311 134.03 L 84.099 149.181 L 100.075 133.825 L 100.176 132.587 L 99.661 132.587 L 78.787 148.25 L 77.559 148.827 L 99.045 131.452 L 98.322 125.888 C 97.918 125.578 90.692 115.11 86.38 112.475 C 78.064 127.329 74.245 142.398 74.102 142.483 C 75.843 157.091 76.838 172.071 76.534 172.371 Z
         "/>
        
        <path id="heartline"
         d="M 88.029 116.516 C 88.055 116.55 89.453 117.471 90.176 118.696 C 90.174 119.105 89.319 122.376 88.517 124.335 C 86.734 122.624 84.716 120.338 84.493 119.843 C 84.991 118.652 85.845 117.322 85.986 117.366 L 87.314 118.216 Z M 88.029 116.515 L 88.029 116.516 C 88.028 116.515 88.028 116.515 88.029 116.515 Z M 88.183 119.251 L 86.93 118.56 C 86.853 118.607 86.454 119.026 86.046 119.875 C 86.86 120.838 87.848 121.631 88.75 122.51 C 89.072 121.497 89.245 120.507 89.493 119.506 C 89.436 119.35 88.97 118.721 88.48 118.563 Z"/>
    </g>
    
    <g id="shadowland"
     style="fill: rgba(70, 30, 0, 0.4)"
    >
        <path
         id="rightTopFace"
         d="M 31.084 14.13 C 34.856 23.831 37.775 34.386 41.12 44.515 C 41.291 45.944 44.114 62.922 44.468 64.079 C 45.073 66.696 54.597 71.288 66.256 72.937 C 48.237 72.437 40.776 65.337 40.632 64.834 C 40.048 63.447 39.657 61.83 39.293 60.773 C 38.753 62.798 37.876 66.709 39.184 70.508 C 39.164 68.717 39.401 62.355 43.129 69.252 C 49.065 88.162 56.028 99.688 62.445 114.695 C 64.959 113.251 67.153 112.501 67.009 112.568 C 67.876 115.557 68.743 118.368 69.609 121.357 L 70.094 123.281 C 70.381 125.138 71.516 131.005 71.977 136.194 C 71.09 136.214 64.325 135.594 59.968 131.438 C 60.082 131.53 54.661 112.045 49.924 99.804 C 52.143 102.013 56.862 109.865 56.862 109.865 C 56.862 109.865 47.363 90.441 29.776 69.851 C 29.751 69.814 29.949 64.279 33.933 52.35 C 33.842 52.153 31.912 55.713 31.145 57.38 C 31.042 56.995 27.91 52.12 25.182 48.848 C 25.518 48.717 29.041 36.182 31.084 14.13 Z M 31.145 57.38 C 31.151 57.401 31.147 57.408 31.135 57.402 C 31.138 57.395 31.142 57.387 31.145 57.38 Z"/>
    
        <!--path
         id="leftToe"
         d="M 98.993 150.333 C 106.618 140.214 111.249 131.648 111.266 131.46 C 110.585 137.039 111.125 141.698 111.058 141.811 C 110.937 141.727 108.565 142.71 101.427 147.517 C 109.667 143.114 110.788 143.438 111.222 143.154 C 110.937 143.312 116.066 143.332 119.719 142.111 C 119.82 142.161 111.148 146.123 98.993 150.333 Z"/-->
         
        <path
         id="rightLeg"
         style="fill:rgba(255,255,255,0.3)"
         d="M 62.44 149.127 C 62.4 149.085 64.052 157.644 72.021 167.121 C 62.836 158.181 61.125 150.207 61.08 150.13 C 60.999 149.682 60.801 149.03 60.741 149.011 L 58.735 147.195 C 58.76 147.418 59.082 153.362 60.37 159.231 C 60.221 159.404 65.867 162.401 73.52 171.118 C 73.445 170.697 74.631 158.384 72.699 142.584 C 71.81 142.411 65.11 141.418 60.924 138.867 L 62.44 149.127 Z"/>
    
        <path
         id="rightHeel"
         d="M 54.294 137.808 C 56.537 138.644 58.852 139.182 58.852 139.182 C 59.138 141.619 59.309 142.767 59.914 145.202 C 59.584 144.934 56.771 142.079 54.294 137.808 Z"/>
    
        <path
         id="rightToe"
         d="M 57.068 161.879 L 59.072 164.851 L 60.407 163.588 C 62.163 164.702 64.81 166.708 64.56 166.708 C 61.618 167.55 56.521 169.878 56.4 170.126 C 55.882 164.405 56.92 161.879 57.068 161.879 Z"/>
    
        <path
         id="rightFoot"
         d="M 51.435 138.204 C 54.057 143.157 57.2 145.658 57.296 145.708 C 57.321 154.227 58.46 159.328 58.485 159.452 C 58.413 159.378 56.184 158.486 53.587 150.537 C 54.701 157.991 55.887 160.393 55.664 160.418 C 55.07 162.35 55.144 168.293 54.996 168.219 C 51.063 152.642 51.212 138.179 51.435 138.204 L 51.435 138.204 Z"/>
        
        <ellipse id="castShadow" cx="60" cy="190" rx="58" ry="2"/>
        
    </g>
    
    <path id="chest"
     style="fill: rgba(255, 255, 255, 0.95);"
     d="M 74.059 142.477 C 74.203 142.392 78.022 127.323 86.338 112.469 C 90.649 115.104 97.876 125.572 98.279 125.882 L 99.002 131.446 L 77.517 148.821 L 78.745 148.244 L 99.619 132.581 L 100.134 132.581 L 100.033 133.819 L 84.057 149.175 L 101.268 134.024 L 109.824 129.8 C 109.369 130.245 96.226 156.464 76.491 172.365 C 76.796 172.065 75.8 157.085 74.059 142.477 Z M 87.272 118.21 L 85.944 117.36 C 85.803 117.316 84.949 118.646 84.451 119.837 C 84.674 120.332 86.692 122.618 88.475 124.329 C 89.277 122.37 90.132 119.099 90.134 118.69 C 89.411 117.465 88.013 116.544 87.987 116.51 Z M 87.987 116.51 L 87.987 116.509 C 87.986 116.509 87.986 116.509 87.987 116.51 Z"/>
    
</g>
</svg>